<svg width="1280" height="1418" viewBox="0 0 1280 1418" fill="none" xmlns="http://www.w3.org/2000/svg">
  <path d="M0 0H1280V1418H0V0Z" fill="#13385B"/>
  <path opacity="0.5" d="M-18.9646 338.165C-18.9646 338.165 325.485 402.662 675.387 279.21C1025.29 155.758 1294.96 66.9854 1294.96 66.9854" stroke="#B5931B" stroke-width="4.05927"/>
  <path opacity="0.5" d="M-9.35138 384.557C-9.35138 384.557 335.098 449.054 685 325.602C1034.9 202.149 1304.57 113.377 1304.57 113.377" stroke="#B5931B" stroke-width="4.05927"/>
  <path opacity="0.5" d="M-13.0175 360.292C-13.0175 360.292 331.432 424.789 681.334 301.336C1031.24 177.884 1300.91 89.1118 1300.91 89.1118" stroke="#338BC0" stroke-width="4.05927"/>
  <path opacity="0.5" d="M-24.0627 319.199C-24.0627 319.199 320.387 383.696 670.289 260.244C1020.19 136.792 1289.86 48.0195 1289.86 48.0195" stroke="#338BC0" stroke-width="3.24742"/>
  <path opacity="0.5" d="M-28.7356 301.814C-28.7356 301.814 315.714 366.312 665.616 242.859C1015.52 119.407 1285.19 30.6348 1285.19 30.6348" stroke="#B5931B" stroke-width="2.43556"/>
  <path opacity="0.5" d="M-33 284.18C-33 284.18 311.417 348.638 661.317 225.131C1011.22 101.623 1280.89 12.8089 1280.89 12.8089" stroke="#338BC0" stroke-width="1.62371"/>
</svg>
