<svg width="1280" height="849" viewBox="0 0 1280 849" fill="none" xmlns="http://www.w3.org/2000/svg">
  <path d="M0 0H1280V851H0V0Z" fill="#13385B"/>
  <path opacity="0.5" d="M-7.01965 567.626C-7.01965 567.626 326.712 632.123 665.726 508.671C1004.74 385.219 1266.02 296.446 1266.02 296.446" stroke="#B5931B" stroke-width="4.05927"/>
  <path opacity="0.5" d="M2.29443 614.018C2.29443 614.018 336.026 678.515 675.04 555.062C1014.05 431.61 1275.33 342.838 1275.33 342.838" stroke="#B5931B" stroke-width="4.05927"/>
  <path opacity="0.5" d="M-1.25757 589.752C-1.25757 589.752 332.474 654.25 671.488 530.797C1010.5 407.345 1271.78 318.573 1271.78 318.573" stroke="#338BC0" stroke-width="4.05927"/>
  <path opacity="0.5" d="M-11.9591 548.66C-11.9591 548.66 321.772 613.157 660.786 489.705C999.8 366.253 1261.08 277.48 1261.08 277.48" stroke="#338BC0" stroke-width="3.24742"/>
  <path opacity="0.5" d="M-16.4866 531.275C-16.4866 531.275 317.245 595.773 656.259 472.32C995.273 348.868 1256.55 260.096 1256.55 260.096" stroke="#B5931B" stroke-width="2.43556"/>
  <path opacity="0.5" d="M-20.6183 513.641C-20.6183 513.641 313.113 578.138 652.127 454.686C991.141 331.233 1252.42 242.461 1252.42 242.461" stroke="#338BC0" stroke-width="1.62371"/>
</svg>
