<svg width="1280" height="849" viewBox="0 0 1280 849" fill="none" xmlns="http://www.w3.org/2000/svg">
<path d="M0 0H1280V851H0V0Z" fill="#13385B"/>
<path opacity="0.5" d="M-4.27399 393.303C-4.27399 393.303 306.318 513.266 660.605 449.66C1014.89 386.054 1286.63 343.288 1286.63 343.288" stroke="#B5931B" stroke-width="4.05626"/>
<path opacity="0.5" d="M-4.75555 440.417C-4.75555 440.417 305.837 560.38 660.123 496.774C1014.41 433.168 1286.15 390.402 1286.15 390.402" stroke="#B5931B" stroke-width="4.05626"/>
<path opacity="0.5" d="M-3.22333 415.998C-3.22333 415.998 307.369 535.961 661.655 472.355C1015.94 408.749 1287.68 365.983 1287.68 365.983" stroke="#338BC0" stroke-width="4.05626"/>
<path opacity="0.5" d="M-5.1745 373.85C-5.1745 373.85 305.418 493.813 659.704 430.207C1013.99 366.602 1285.73 323.835 1285.73 323.835" stroke="#338BC0" stroke-width="3.245"/>
<path opacity="0.5" d="M-5.99994 356.019C-5.99994 356.019 304.561 475.927 658.855 412.255C1013.15 348.582 1284.9 305.765 1284.9 305.765" stroke="#B5931B" stroke-width="2.43375"/>
</svg>
